%
M48
M72
T01C0.02000
T02C0.02756
T03C0.03150
T04C0.03937
T05C0.05118
%
T01
X105200Y74800
X131600Y101200
X197200Y120400
X98000Y206000
T02
X36000Y203126
X36000Y211000
X36000Y218874
X36000Y149937
X36000Y142063
X225252Y286000
X233126Y286000
X241000Y286000
X248874Y286000
X256748Y286000
X253874Y246000
X246000Y246000
X238126Y246000
X230252Y246000
X261748Y246000
X261748Y201000
X253874Y201000
X246000Y201000
X238126Y201000
X230252Y201000
X230252Y161000
X238126Y161000
X246000Y161000
X253874Y161000
X261748Y161000
X261748Y116000
X253874Y116000
X246000Y116000
X238126Y116000
X230252Y116000
X230252Y71000
X238126Y71000
X246000Y71000
X253874Y71000
X261748Y71000
X261748Y31000
X253874Y31000
X246000Y31000
X238126Y31000
X230252Y31000
T03
X191000Y31000
X191000Y21000
X191000Y41000
X191000Y51000
X191000Y61000
X191000Y71000
X191000Y81000
X191000Y91000
X191000Y101000
X191000Y111000
X191000Y136000
X191000Y146000
X191000Y156000
X191000Y166000
X191000Y176000
X191000Y186000
X191000Y196000
X191000Y206000
X191000Y216000
X191000Y226000
X161000Y226000
X161000Y216000
X161000Y206000
X161000Y196000
X161000Y186000
X161000Y176000
X161000Y166000
X161000Y156000
X161000Y146000
X161000Y136000
X161000Y111000
X161000Y101000
X161000Y91000
X161000Y81000
X161000Y71000
X161000Y61000
X161000Y51000
X161000Y41000
X161000Y31000
X161000Y21000
T04
X136000Y36000
X136000Y46000
X136000Y56000
X136000Y66000
X136000Y76000
X136000Y86000
X136000Y96000
X136000Y106000
X136000Y116000
X136000Y126000
X136000Y136000
X136000Y146000
X136000Y156000
X136000Y166000
X136000Y176000
X136000Y186000
X136000Y196000
X136000Y206000
X136000Y216000
X136000Y226000
X76000Y226000
X76000Y216000
X76000Y206000
X76000Y196000
X76000Y186000
X76000Y176000
X76000Y166000
X76000Y156000
X76000Y146000
X76000Y136000
X76000Y126000
X76000Y116000
X76000Y106000
X76000Y96000
X76000Y86000
X76000Y76000
X76000Y66000
X76000Y56000
X76000Y46000
X76000Y36000
T05
X11000Y11000
X271000Y11000
X276000Y306000
X11000Y306000
M30
