G75*
%MOIN*%
%OFA0B0*%
%FSLAX25Y25*%
%IPPOS*%
%LPD*%
%AMOC8*
5,1,8,0,0,1.08239X$1,22.5*
%
%ADD10C,0.05918*%
%ADD11C,0.06350*%
%ADD12C,0.07099*%
%ADD13R,0.07400X0.07400*%
%ADD14C,0.07400*%
D10*
X0011000Y0011000D03*
X0271000Y0011000D03*
X0276000Y0306000D03*
X0011000Y0306000D03*
D11*
X0161000Y0226000D03*
X0161000Y0216000D03*
X0161000Y0206000D03*
X0161000Y0196000D03*
X0161000Y0186000D03*
X0161000Y0176000D03*
X0161000Y0166000D03*
X0161000Y0156000D03*
X0161000Y0146000D03*
X0161000Y0136000D03*
X0161000Y0111000D03*
X0161000Y0101000D03*
X0161000Y0091000D03*
X0161000Y0081000D03*
X0161000Y0071000D03*
X0161000Y0061000D03*
X0161000Y0051000D03*
X0161000Y0041000D03*
X0161000Y0031000D03*
X0161000Y0021000D03*
X0191000Y0021000D03*
X0191000Y0031000D03*
X0191000Y0041000D03*
X0191000Y0051000D03*
X0191000Y0061000D03*
X0191000Y0071000D03*
X0191000Y0081000D03*
X0191000Y0091000D03*
X0191000Y0101000D03*
X0191000Y0111000D03*
X0191000Y0136000D03*
X0191000Y0146000D03*
X0191000Y0156000D03*
X0191000Y0166000D03*
X0191000Y0176000D03*
X0191000Y0186000D03*
X0191000Y0196000D03*
X0191000Y0206000D03*
X0191000Y0216000D03*
X0191000Y0226000D03*
D12*
X0230252Y0246000D03*
X0238126Y0246000D03*
X0246000Y0246000D03*
X0253874Y0246000D03*
X0261748Y0246000D03*
X0256748Y0286000D03*
X0248874Y0286000D03*
X0241000Y0286000D03*
X0233126Y0286000D03*
X0225252Y0286000D03*
X0230252Y0201000D03*
X0238126Y0201000D03*
X0246000Y0201000D03*
X0253874Y0201000D03*
X0261748Y0201000D03*
X0261748Y0161000D03*
X0253874Y0161000D03*
X0246000Y0161000D03*
X0238126Y0161000D03*
X0230252Y0161000D03*
X0230252Y0116000D03*
X0238126Y0116000D03*
X0246000Y0116000D03*
X0253874Y0116000D03*
X0261748Y0116000D03*
X0261748Y0071000D03*
X0253874Y0071000D03*
X0246000Y0071000D03*
X0238126Y0071000D03*
X0230252Y0071000D03*
X0230252Y0031000D03*
X0238126Y0031000D03*
X0246000Y0031000D03*
X0253874Y0031000D03*
X0261748Y0031000D03*
X0036000Y0142063D03*
X0036000Y0149937D03*
X0036000Y0203126D03*
X0036000Y0211000D03*
X0036000Y0218874D03*
D13*
X0076000Y0226000D03*
X0136000Y0226000D03*
D14*
X0136000Y0216000D03*
X0136000Y0206000D03*
X0136000Y0196000D03*
X0136000Y0186000D03*
X0136000Y0176000D03*
X0136000Y0166000D03*
X0136000Y0156000D03*
X0136000Y0146000D03*
X0136000Y0136000D03*
X0136000Y0126000D03*
X0136000Y0116000D03*
X0136000Y0106000D03*
X0136000Y0096000D03*
X0136000Y0086000D03*
X0136000Y0076000D03*
X0136000Y0066000D03*
X0136000Y0056000D03*
X0136000Y0046000D03*
X0136000Y0036000D03*
X0076000Y0036000D03*
X0076000Y0046000D03*
X0076000Y0056000D03*
X0076000Y0066000D03*
X0076000Y0076000D03*
X0076000Y0086000D03*
X0076000Y0096000D03*
X0076000Y0106000D03*
X0076000Y0116000D03*
X0076000Y0126000D03*
X0076000Y0136000D03*
X0076000Y0146000D03*
X0076000Y0156000D03*
X0076000Y0166000D03*
X0076000Y0176000D03*
X0076000Y0186000D03*
X0076000Y0196000D03*
X0076000Y0206000D03*
X0076000Y0216000D03*
M02*
