%
M48
M72
T01C0.02000
T02C0.03200
T03C0.03937
T04C0.04000
T05C0.12598
%
T01
X148400Y98000
X166800Y88400
X179600Y92400
X179600Y101200
X190000Y99600
X189400Y106200
X179600Y112400
X190000Y92400
X160400Y135600
X166000Y141200
X182200Y160800
X189400Y180800
X184400Y189200
X195000Y192000
X209400Y180800
X247600Y96400
X267600Y63600
T02
X221000Y66000
X216000Y116000
X226000Y116000
X186000Y121000
X176000Y121000
X161000Y66000
X231000Y181000
X241000Y181000
X226000Y236000
X176000Y186000
X166000Y186000
X166000Y236000
T03
X141000Y236000
X141000Y226000
X141000Y216000
X141000Y206000
X141000Y196000
X141000Y186000
X141000Y176000
X141000Y166000
X141000Y156000
X141000Y146000
X141000Y136000
X141000Y126000
X141000Y116000
X141000Y106000
X141000Y96000
X141000Y86000
X141000Y76000
X141000Y66000
X141000Y56000
X141000Y46000
X81000Y46000
X81000Y56000
X81000Y66000
X81000Y76000
X81000Y86000
X81000Y96000
X81000Y106000
X81000Y116000
X81000Y126000
X81000Y136000
X81000Y146000
X81000Y156000
X81000Y166000
X81000Y176000
X81000Y186000
X81000Y196000
X81000Y206000
X81000Y216000
X81000Y226000
X81000Y236000
T04
X36000Y216000
X36000Y206000
X36000Y196000
X36000Y111000
X36000Y101000
X181000Y31000
X191000Y31000
X201000Y31000
X211000Y31000
X221000Y31000
X261000Y46000
X271000Y46000
X281000Y46000
X291000Y46000
X301000Y46000
X301000Y101000
X291000Y101000
X281000Y101000
X271000Y101000
X261000Y101000
X261000Y156000
X271000Y156000
X281000Y156000
X291000Y156000
X301000Y156000
X301000Y206000
X291000Y206000
X281000Y206000
X271000Y206000
X261000Y206000
X261000Y261000
X271000Y261000
X281000Y261000
X291000Y261000
X301000Y261000
X301000Y311000
X291000Y311000
X281000Y311000
X271000Y311000
X261000Y311000
T05
X21000Y21000
X316000Y21000
X316000Y286000
X21000Y321000
M30
