G75*
%MOIN*%
%OFA0B0*%
%FSLAX25Y25*%
%IPPOS*%
%LPD*%
%AMOC8*
5,1,8,0,0,1.08239X$1,22.5*
%
%ADD10C,0.13398*%
%ADD11R,0.07400X0.07400*%
%ADD12C,0.07400*%
%ADD13OC8,0.07100*%
%ADD14OC8,0.06400*%
%ADD15C,0.07200*%
D10*
X0021000Y0021000D03*
X0316000Y0021000D03*
X0316000Y0286000D03*
X0021000Y0321000D03*
D11*
X0081000Y0236000D03*
X0141000Y0236000D03*
D12*
X0141000Y0226000D03*
X0141000Y0216000D03*
X0141000Y0206000D03*
X0141000Y0196000D03*
X0141000Y0186000D03*
X0141000Y0176000D03*
X0141000Y0166000D03*
X0141000Y0156000D03*
X0141000Y0146000D03*
X0141000Y0136000D03*
X0141000Y0126000D03*
X0141000Y0116000D03*
X0141000Y0106000D03*
X0141000Y0096000D03*
X0141000Y0086000D03*
X0141000Y0076000D03*
X0141000Y0066000D03*
X0141000Y0056000D03*
X0141000Y0046000D03*
X0081000Y0046000D03*
X0081000Y0056000D03*
X0081000Y0066000D03*
X0081000Y0076000D03*
X0081000Y0086000D03*
X0081000Y0096000D03*
X0081000Y0106000D03*
X0081000Y0116000D03*
X0081000Y0126000D03*
X0081000Y0136000D03*
X0081000Y0146000D03*
X0081000Y0156000D03*
X0081000Y0166000D03*
X0081000Y0176000D03*
X0081000Y0186000D03*
X0081000Y0196000D03*
X0081000Y0206000D03*
X0081000Y0216000D03*
X0081000Y0226000D03*
D13*
X0166000Y0186000D03*
X0176000Y0186000D03*
X0231000Y0181000D03*
X0241000Y0181000D03*
X0186000Y0121000D03*
X0176000Y0121000D03*
X0216000Y0116000D03*
X0226000Y0116000D03*
D14*
X0221000Y0066000D03*
X0161000Y0066000D03*
X0166000Y0236000D03*
X0226000Y0236000D03*
D15*
X0261000Y0257800D02*
X0261000Y0264200D01*
X0271000Y0264200D02*
X0271000Y0257800D01*
X0281000Y0257800D02*
X0281000Y0264200D01*
X0291000Y0264200D02*
X0291000Y0257800D01*
X0301000Y0257800D02*
X0301000Y0264200D01*
X0301000Y0307800D02*
X0301000Y0314200D01*
X0291000Y0314200D02*
X0291000Y0307800D01*
X0281000Y0307800D02*
X0281000Y0314200D01*
X0271000Y0314200D02*
X0271000Y0307800D01*
X0261000Y0307800D02*
X0261000Y0314200D01*
X0261000Y0209200D02*
X0261000Y0202800D01*
X0271000Y0202800D02*
X0271000Y0209200D01*
X0281000Y0209200D02*
X0281000Y0202800D01*
X0291000Y0202800D02*
X0291000Y0209200D01*
X0301000Y0209200D02*
X0301000Y0202800D01*
X0301000Y0159200D02*
X0301000Y0152800D01*
X0291000Y0152800D02*
X0291000Y0159200D01*
X0281000Y0159200D02*
X0281000Y0152800D01*
X0271000Y0152800D02*
X0271000Y0159200D01*
X0261000Y0159200D02*
X0261000Y0152800D01*
X0261000Y0104200D02*
X0261000Y0097800D01*
X0271000Y0097800D02*
X0271000Y0104200D01*
X0281000Y0104200D02*
X0281000Y0097800D01*
X0291000Y0097800D02*
X0291000Y0104200D01*
X0301000Y0104200D02*
X0301000Y0097800D01*
X0301000Y0049200D02*
X0301000Y0042800D01*
X0291000Y0042800D02*
X0291000Y0049200D01*
X0281000Y0049200D02*
X0281000Y0042800D01*
X0271000Y0042800D02*
X0271000Y0049200D01*
X0261000Y0049200D02*
X0261000Y0042800D01*
X0221000Y0034200D02*
X0221000Y0027800D01*
X0211000Y0027800D02*
X0211000Y0034200D01*
X0201000Y0034200D02*
X0201000Y0027800D01*
X0191000Y0027800D02*
X0191000Y0034200D01*
X0181000Y0034200D02*
X0181000Y0027800D01*
X0039200Y0101000D02*
X0032800Y0101000D01*
X0032800Y0111000D02*
X0039200Y0111000D01*
X0039200Y0196000D02*
X0032800Y0196000D01*
X0032800Y0206000D02*
X0039200Y0206000D01*
X0039200Y0216000D02*
X0032800Y0216000D01*
M02*
